<svg width="150" height="150" viewBox="0 0 150 150" fill="none" xmlns="http://www.w3.org/2000/svg">
<path d="M68.75 43.75H81.25V87.5H68.75V43.75ZM68.75 93.75H81.25V106.25H68.75V93.75Z" fill="#5C3161"/>
<path d="M135.669 45.5813L104.419 14.3313C103.839 13.7497 103.151 13.2886 102.392 12.9743C101.634 12.66 100.821 12.4988 100 12.5H50C49.1791 12.4988 48.3661 12.66 47.6077 12.9743C46.8494 13.2886 46.1607 13.7497 45.5813 14.3313L14.3313 45.5813C13.7497 46.1607 13.2886 46.8494 12.9743 47.6077C12.66 48.3661 12.4988 49.1791 12.5 50V100C12.5 101.663 13.1563 103.25 14.3313 104.419L45.5813 135.669C46.1607 136.25 46.8494 136.711 47.6077 137.026C48.3661 137.34 49.1791 137.501 50 137.5H100C101.663 137.5 103.25 136.844 104.419 135.669L135.669 104.419C136.25 103.839 136.711 103.151 137.026 102.392C137.34 101.634 137.501 100.821 137.5 100V50C137.501 49.1791 137.34 48.3661 137.026 47.6077C136.711 46.8494 136.25 46.1607 135.669 45.5813ZM125 97.4125L97.4125 125H52.5875L25 97.4125V52.5875L52.5875 25H97.4125L125 52.5875V97.4125Z" fill="#5C3161"/>
</svg>
