<svg width="165" height="135" viewBox="0 0 165 135" fill="none" xmlns="http://www.w3.org/2000/svg">
<rect width="165" height="135" fill="#D9D9D9"/>
<path d="M38.5795 64.2102V63.2727H45.125V64.2102H42.3807V72H41.3239V64.2102H38.5795ZM48.4148 72.1364C47.7841 72.1364 47.2401 71.9972 46.7827 71.7188C46.3281 71.4375 45.9773 71.0455 45.7301 70.5426C45.4858 70.0369 45.3636 69.4489 45.3636 68.7784C45.3636 68.108 45.4858 67.517 45.7301 67.0057C45.9773 66.4915 46.321 66.0909 46.7614 65.804C47.2045 65.5142 47.7216 65.3693 48.3125 65.3693C48.6534 65.3693 48.9901 65.4261 49.3224 65.5398C49.6548 65.6534 49.9574 65.8381 50.2301 66.0938C50.5028 66.3466 50.7202 66.6818 50.8821 67.0994C51.044 67.517 51.125 68.0312 51.125 68.642V69.0682H46.0795V68.1989H50.1023C50.1023 67.8295 50.0284 67.5 49.8807 67.2102C49.7358 66.9205 49.5284 66.6918 49.2585 66.5241C48.9915 66.3565 48.6761 66.2727 48.3125 66.2727C47.9119 66.2727 47.5653 66.3722 47.2727 66.571C46.983 66.767 46.7599 67.0227 46.6037 67.3381C46.4474 67.6534 46.3693 67.9915 46.3693 68.3523V68.9318C46.3693 69.4261 46.4545 69.8452 46.625 70.1889C46.7983 70.5298 47.0384 70.7898 47.3452 70.9688C47.652 71.1449 48.0085 71.233 48.4148 71.233C48.679 71.233 48.9176 71.196 49.1307 71.1222C49.3466 71.0455 49.5327 70.9318 49.6889 70.7812C49.8452 70.6278 49.9659 70.4375 50.0511 70.2102L51.0227 70.483C50.9205 70.8125 50.7486 71.1023 50.5071 71.3523C50.2656 71.5994 49.9673 71.7926 49.6122 71.9318C49.2571 72.0682 48.858 72.1364 48.4148 72.1364ZM53.229 65.4545L54.7972 68.1307L56.3654 65.4545H57.5245L55.4109 68.7273L57.5245 72H56.3654L54.7972 69.4602L53.229 72H52.07L54.1495 68.7273L52.07 65.4545H53.229ZM61.8061 65.4545V66.3068H58.4141V65.4545H61.8061ZM59.4027 63.8864H60.4084V70.125C60.4084 70.4091 60.4496 70.6222 60.532 70.7642C60.6172 70.9034 60.7251 70.9972 60.8558 71.0455C60.9893 71.0909 61.13 71.1136 61.2777 71.1136C61.3885 71.1136 61.4794 71.108 61.5504 71.0966C61.6214 71.0824 61.6783 71.071 61.7209 71.0625L61.9254 71.9659C61.8572 71.9915 61.7621 72.017 61.6399 72.0426C61.5178 72.071 61.3629 72.0852 61.1754 72.0852C60.8913 72.0852 60.6129 72.0241 60.3402 71.902C60.0703 71.7798 59.8459 71.5938 59.6669 71.3438C59.4908 71.0938 59.4027 70.7784 59.4027 70.3977V63.8864ZM65.9077 72.1364C65.3168 72.1364 64.7983 71.9957 64.3523 71.7145C63.9091 71.4332 63.5625 71.0398 63.3125 70.5341C63.0653 70.0284 62.9418 69.4375 62.9418 68.7614C62.9418 68.0795 63.0653 67.4844 63.3125 66.9759C63.5625 66.4673 63.9091 66.0724 64.3523 65.7912C64.7983 65.5099 65.3168 65.3693 65.9077 65.3693C66.4986 65.3693 67.0156 65.5099 67.4588 65.7912C67.9048 66.0724 68.2514 66.4673 68.4986 66.9759C68.7486 67.4844 68.8736 68.0795 68.8736 68.7614C68.8736 69.4375 68.7486 70.0284 68.4986 70.5341C68.2514 71.0398 67.9048 71.4332 67.4588 71.7145C67.0156 71.9957 66.4986 72.1364 65.9077 72.1364ZM65.9077 71.233C66.3565 71.233 66.7259 71.1179 67.0156 70.8878C67.3054 70.6577 67.5199 70.3551 67.6591 69.9801C67.7983 69.6051 67.8679 69.1989 67.8679 68.7614C67.8679 68.3239 67.7983 67.9162 67.6591 67.5384C67.5199 67.1605 67.3054 66.8551 67.0156 66.6222C66.7259 66.3892 66.3565 66.2727 65.9077 66.2727C65.4588 66.2727 65.0895 66.3892 64.7997 66.6222C64.5099 66.8551 64.2955 67.1605 64.1562 67.5384C64.017 67.9162 63.9474 68.3239 63.9474 68.7614C63.9474 69.1989 64.017 69.6051 64.1562 69.9801C64.2955 70.3551 64.5099 70.6577 64.7997 70.8878C65.0895 71.1179 65.4588 71.233 65.9077 71.233ZM73.9201 72V63.2727H74.9258V66.4943H75.011C75.0849 66.3807 75.1871 66.2358 75.3178 66.0597C75.4513 65.8807 75.6417 65.7216 75.8888 65.5824C76.1388 65.4403 76.4769 65.3693 76.9031 65.3693C77.4542 65.3693 77.94 65.5071 78.3604 65.7827C78.7809 66.0582 79.109 66.4489 79.3448 66.9545C79.5806 67.4602 79.6985 68.0568 79.6985 68.7443C79.6985 69.4375 79.5806 70.0384 79.3448 70.5469C79.109 71.0526 78.7823 71.4446 78.3647 71.723C77.9471 71.9986 77.4656 72.1364 76.9201 72.1364C76.4996 72.1364 76.163 72.0668 75.9102 71.9276C75.6573 71.7855 75.4627 71.625 75.3263 71.446C75.19 71.2642 75.0849 71.1136 75.011 70.9943H74.8917V72H73.9201ZM74.9087 68.7273C74.9087 69.2216 74.9812 69.6577 75.1261 70.0355C75.271 70.4105 75.4826 70.7045 75.761 70.9176C76.0394 71.1278 76.3803 71.233 76.7837 71.233C77.2042 71.233 77.555 71.1222 77.8363 70.9006C78.1204 70.6761 78.3335 70.375 78.4755 69.9972C78.6204 69.6165 78.6928 69.1932 78.6928 68.7273C78.6928 68.267 78.6218 67.8523 78.4798 67.483C78.3406 67.1108 78.1289 66.8168 77.8448 66.6009C77.5636 66.3821 77.2099 66.2727 76.7837 66.2727C76.3746 66.2727 76.0309 66.3764 75.7525 66.5838C75.4741 66.7884 75.2638 67.0753 75.1218 67.4446C74.9798 67.8111 74.9087 68.2386 74.9087 68.7273ZM83.9812 72.1364C83.3505 72.1364 82.8065 71.9972 82.3491 71.7188C81.8945 71.4375 81.5437 71.0455 81.2965 70.5426C81.0522 70.0369 80.93 69.4489 80.93 68.7784C80.93 68.108 81.0522 67.517 81.2965 67.0057C81.5437 66.4915 81.8874 66.0909 82.3278 65.804C82.771 65.5142 83.288 65.3693 83.8789 65.3693C84.2198 65.3693 84.5565 65.4261 84.8888 65.5398C85.2212 65.6534 85.5238 65.8381 85.7965 66.0938C86.0692 66.3466 86.2866 66.6818 86.4485 67.0994C86.6104 67.517 86.6914 68.0312 86.6914 68.642V69.0682H81.646V68.1989H85.6687C85.6687 67.8295 85.5948 67.5 85.4471 67.2102C85.3022 66.9205 85.0948 66.6918 84.8249 66.5241C84.5579 66.3565 84.2425 66.2727 83.8789 66.2727C83.4783 66.2727 83.1317 66.3722 82.8391 66.571C82.5494 66.767 82.3263 67.0227 82.1701 67.3381C82.0138 67.6534 81.9357 67.9915 81.9357 68.3523V68.9318C81.9357 69.4261 82.021 69.8452 82.1914 70.1889C82.3647 70.5298 82.6048 70.7898 82.9116 70.9688C83.2184 71.1449 83.5749 71.233 83.9812 71.233C84.2454 71.233 84.484 71.196 84.6971 71.1222C84.913 71.0455 85.0991 70.9318 85.2553 70.7812C85.4116 70.6278 85.5323 70.4375 85.6175 70.2102L86.5891 70.483C86.4869 70.8125 86.315 71.1023 86.0735 71.3523C85.832 71.5994 85.5337 71.7926 85.1786 71.9318C84.8235 72.0682 84.4244 72.1364 83.9812 72.1364ZM88.2212 72V65.4545H89.1928V66.4773H89.2781C89.4144 66.1278 89.6346 65.8565 89.9386 65.6634C90.2425 65.4673 90.6076 65.3693 91.0337 65.3693C91.4656 65.3693 91.8249 65.4673 92.1119 65.6634C92.4016 65.8565 92.6275 66.1278 92.7894 66.4773H92.8576C93.0252 66.1392 93.2766 65.8707 93.6119 65.6719C93.9471 65.4702 94.3491 65.3693 94.8178 65.3693C95.4031 65.3693 95.8817 65.5526 96.2539 65.919C96.6261 66.2827 96.8121 66.8494 96.8121 67.6193V72H95.8065V67.6193C95.8065 67.1364 95.6744 66.7912 95.4102 66.5838C95.146 66.3764 94.8349 66.2727 94.4769 66.2727C94.0167 66.2727 93.6602 66.4119 93.4073 66.6903C93.1545 66.9659 93.0281 67.3153 93.0281 67.7386V72H92.0053V67.517C92.0053 67.1449 91.8846 66.8452 91.6431 66.6179C91.4016 66.3878 91.0906 66.2727 90.7099 66.2727C90.4485 66.2727 90.2042 66.3423 89.9769 66.4815C89.7525 66.6207 89.5707 66.8139 89.4315 67.0611C89.2951 67.3054 89.2269 67.5881 89.2269 67.9091V72H88.2212ZM103.032 63.2727V72H102.026V63.2727H103.032ZM107.618 72.1364C106.987 72.1364 106.443 71.9972 105.986 71.7188C105.531 71.4375 105.18 71.0455 104.933 70.5426C104.689 70.0369 104.567 69.4489 104.567 68.7784C104.567 68.108 104.689 67.517 104.933 67.0057C105.18 66.4915 105.524 66.0909 105.964 65.804C106.408 65.5142 106.925 65.3693 107.516 65.3693C107.857 65.3693 108.193 65.4261 108.526 65.5398C108.858 65.6534 109.161 65.8381 109.433 66.0938C109.706 66.3466 109.923 66.6818 110.085 67.0994C110.247 67.517 110.328 68.0312 110.328 68.642V69.0682H105.283V68.1989H109.305C109.305 67.8295 109.232 67.5 109.084 67.2102C108.939 66.9205 108.732 66.6918 108.462 66.5241C108.195 66.3565 107.879 66.2727 107.516 66.2727C107.115 66.2727 106.768 66.3722 106.476 66.571C106.186 66.767 105.963 67.0227 105.807 67.3381C105.651 67.6534 105.572 67.9915 105.572 68.3523V68.9318C105.572 69.4261 105.658 69.8452 105.828 70.1889C106.001 70.5298 106.241 70.7898 106.548 70.9688C106.855 71.1449 107.212 71.233 107.618 71.233C107.882 71.233 108.121 71.196 108.334 71.1222C108.55 71.0455 108.736 70.9318 108.892 70.7812C109.048 70.6278 109.169 70.4375 109.254 70.2102L110.226 70.483C110.124 70.8125 109.952 71.1023 109.71 71.3523C109.469 71.5994 109.17 71.7926 108.815 71.9318C108.46 72.0682 108.061 72.1364 107.618 72.1364ZM114.5 74.5909C114.014 74.5909 113.597 74.5284 113.247 74.4034C112.898 74.2812 112.607 74.1193 112.374 73.9176C112.143 73.7188 111.96 73.5057 111.824 73.2784L112.625 72.7159C112.716 72.8352 112.831 72.9716 112.97 73.125C113.109 73.2812 113.3 73.4162 113.541 73.5298C113.786 73.6463 114.105 73.7045 114.5 73.7045C115.028 73.7045 115.464 73.5767 115.808 73.321C116.152 73.0653 116.324 72.6648 116.324 72.1193V70.7898H116.239C116.165 70.9091 116.06 71.0568 115.923 71.233C115.79 71.4062 115.597 71.5611 115.344 71.6974C115.094 71.831 114.756 71.8977 114.33 71.8977C113.801 71.8977 113.327 71.7727 112.906 71.5227C112.489 71.2727 112.158 70.9091 111.913 70.4318C111.672 69.9545 111.551 69.375 111.551 68.6932C111.551 68.0227 111.669 67.4389 111.905 66.9418C112.141 66.4418 112.469 66.0554 112.889 65.7827C113.31 65.5071 113.795 65.3693 114.347 65.3693C114.773 65.3693 115.111 65.4403 115.361 65.5824C115.614 65.7216 115.807 65.8807 115.94 66.0597C116.077 66.2358 116.182 66.3807 116.256 66.4943H116.358V65.4545H117.33V72.1875C117.33 72.75 117.202 73.2074 116.946 73.5597C116.693 73.9148 116.352 74.1747 115.923 74.3395C115.497 74.5071 115.023 74.5909 114.5 74.5909ZM114.466 70.9943C114.869 70.9943 115.21 70.902 115.489 70.7173C115.767 70.5327 115.979 70.267 116.124 69.9205C116.268 69.5739 116.341 69.1591 116.341 68.6761C116.341 68.2045 116.27 67.7884 116.128 67.4276C115.986 67.0668 115.776 66.7841 115.497 66.5795C115.219 66.375 114.875 66.2727 114.466 66.2727C114.04 66.2727 113.685 66.3807 113.401 66.5966C113.119 66.8125 112.908 67.1023 112.766 67.4659C112.626 67.8295 112.557 68.233 112.557 68.6761C112.557 69.1307 112.628 69.5327 112.77 69.8821C112.915 70.2287 113.128 70.5014 113.409 70.7003C113.693 70.8963 114.045 70.9943 114.466 70.9943ZM121.097 72.1534C120.682 72.1534 120.305 72.0753 119.967 71.919C119.629 71.7599 119.361 71.5312 119.162 71.233C118.963 70.9318 118.864 70.5682 118.864 70.142C118.864 69.767 118.938 69.4631 119.085 69.2301C119.233 68.9943 119.43 68.8097 119.678 68.6761C119.925 68.5426 120.197 68.4432 120.496 68.3778C120.797 68.3097 121.099 68.2557 121.403 68.2159C121.801 68.1648 122.124 68.1264 122.371 68.1009C122.621 68.0724 122.803 68.0256 122.916 67.9602C123.033 67.8949 123.091 67.7812 123.091 67.6193V67.5852C123.091 67.1648 122.976 66.8381 122.746 66.6051C122.518 66.3722 122.173 66.2557 121.71 66.2557C121.23 66.2557 120.854 66.3608 120.581 66.571C120.308 66.7812 120.116 67.0057 120.006 67.2443L119.051 66.9034C119.222 66.5057 119.449 66.196 119.733 65.9744C120.02 65.75 120.332 65.5937 120.67 65.5057C121.011 65.4148 121.347 65.3693 121.676 65.3693C121.886 65.3693 122.128 65.3949 122.401 65.446C122.676 65.4943 122.942 65.5952 123.197 65.7486C123.456 65.902 123.67 66.1335 123.841 66.4432C124.011 66.7528 124.097 67.1676 124.097 67.6875V72H123.091V71.1136H123.04C122.972 71.2557 122.858 71.4077 122.699 71.5696C122.54 71.7315 122.328 71.8693 122.064 71.983C121.8 72.0966 121.477 72.1534 121.097 72.1534ZM121.25 71.25C121.648 71.25 121.983 71.1719 122.256 71.0156C122.531 70.8594 122.739 70.6577 122.878 70.4105C123.02 70.1634 123.091 69.9034 123.091 69.6307V68.7102C123.048 68.7614 122.955 68.8082 122.81 68.8509C122.668 68.8906 122.503 68.9261 122.315 68.9574C122.131 68.9858 121.95 69.0114 121.774 69.0341C121.601 69.054 121.46 69.071 121.352 69.0852C121.091 69.1193 120.847 69.1747 120.619 69.2514C120.395 69.3253 120.213 69.4375 120.074 69.5881C119.938 69.7358 119.869 69.9375 119.869 70.1932C119.869 70.5426 119.999 70.8068 120.257 70.9858C120.518 71.1619 120.849 71.25 121.25 71.25ZM126.938 63.2727V72H125.932V63.2727H126.938Z" fill="black"/>
</svg>
